<svg fill="none" height="63" viewBox="0 0 163 63" width="163" xmlns="http://www.w3.org/2000/svg" xmlns:xlink="http://www.w3.org/1999/xlink"><linearGradient id="a"><stop offset=".1311" stop-color="#dcc555"/><stop offset=".6117" stop-color="#bb9d13"/></linearGradient><linearGradient id="b" gradientUnits="userSpaceOnUse" x1="78.1566" x2="147.034" xlink:href="#a" y1="11.6902" y2="34.6494"/><linearGradient id="c" gradientUnits="userSpaceOnUse" x1="92.129" x2="207.717" xlink:href="#a" y1="5.0237" y2="136.994"/><clipPath id="d"><path d="m0 0h162.9v62.8h-162.9z"/></clipPath><g clip-path="url(#d)"><g fill="#000"><path d="m46.9 61.3c-6.5 0-5.1-4.3-.4-4.3 5.1 0 6.3-6.9 6.3-13.5v-19.2c0-3.4-.4-7.3-5.2-7.3h-2.6v-2.6h7.5c6.7 0 6.9 5.6 6.9 8.1v21.2c0 12.9-6 17.6-12.5 17.6z"/><path d="m17.2 17.9c-9.79997 0-11.49998 3.4-11.49998 12.2-2.9 0-5.7999956-1.6-5.7999956-6.4 0-8.2 5.9999956-10.3 17.3999756-10.3 16.6 0 24.1 8.1 24.1 20.2s-8.1 21.3-22.9 21.3c-13.49998 0-18.099976-5.5-18.099976-9.3 0-1.7.999996-2.9 3.199996-4.1 1.6 2.7 5.2 8.9 14.19998 8.9 9.5 0 16.5-5.5 16.5-16.8 0-11.6-7.1-15.7-17.1-15.7z"/><path d="m50.9 9.7c-2.4 0-4.8-1.5-4.8-4 0-2.7 2.3-4.2 4.8-4.2 3 0 4.9 1.5 4.9 4.2 0 2.6-2.1 4-4.9 4z"/></g><path d="m140.4 0h-43.8999c-14 0-25.3 11.3-25.3 25.3v16.5l48.0999-21.9z" fill="url(#b)"/><path d="m161.8 9.1c-2.2-4.3-7.2-6.7-11.7-8-2.3-.7-4.8-1.1-7.3-1.1h-2.3l-21.2 19.9-44 41.5c.3.5.7 1 1 1.4 6.8-3.2 13.7-6.4 20.5-9.6 12.3-5.7 24.5-11.6 36.9-17.2 6.9-3.2 14.3-5.9 20.9-9.8 4.7-2.7 9-7.8 8.4-13.5-.3-1.3-.6-2.5-1.2-3.6z" fill="url(#c)"/></g></svg>