<?xml version="1.0" encoding="utf-8" ?><svg xmlns="http://www.w3.org/2000/svg" xmlns:xlink="http://www.w3.org/1999/xlink" width="349" height="349" viewBox="0 0 349 349"><defs><linearGradient id="gradient_0" gradientUnits="userSpaceOnUse" x1="95.569511" y1="191.19028" x2="96.173355" y2="0.5612818"><stop offset="0" stop-color="#0062C2"/><stop offset="1" stop-color="#00ABCB"/></linearGradient></defs><path fill="url(#gradient_0)" transform="matrix(1.81771 0 0 1.81771 -0.00012207 -6.10352e-05)" d="M37.3473 0L154.635 0C157.226 0.838339 159.983 1.05381 162.565 1.90075C176.893 6.60051 188.316 19.0573 190.948 34.0079C191.277 35.8767 191.408 38.5847 192 40.3255L192 151.439C191.284 154.276 191.264 157.253 190.569 160.025C186.776 175.164 174.781 187.016 159.669 190.806C158.335 191.141 156.168 191.537 154.939 192L36.8541 192C36.1459 191.741 34.9903 191.449 34.245 191.288C19.3179 188.065 7.13396 177.699 2.21947 163.141C1.17737 160.053 0.947583 156.333 0 153.646L0 38.3479C0.441364 37.3725 0.780601 34.1302 1.06769 32.7983C4.09135 18.77 14.84 6.6533 28.535 2.23994C31.5017 1.28388 34.4191 0.863084 37.3473 0Z"/><path fill="#FEFEFE" transform="matrix(1.81771 0 0 1.81771 -0.00012207 -6.10352e-05)" d="M53.2798 69.7215C64.1007 81.0818 64.9983 79.9037 80.2165 79.8515L112.984 79.8385C115.923 79.8384 118.893 79.8061 121.809 79.8364C129.255 79.9139 136.548 79.1999 142.736 84.2103C147.994 88.4683 150.356 93.8438 150.306 100.568C150.226 111.241 150.293 121.789 150.333 132.451C150.337 134.377 150.359 136.133 149.901 138.022C147.735 146.943 139.663 145.729 132.559 145.705L117.777 145.668L62.625 145.676L41.6693 145.724L41.728 121.359L129.483 121.307C129.542 117.295 130.092 110.002 128.978 106.087C128.391 104.024 124.165 101.164 121.943 100.892C119.326 100.572 116.221 100.621 113.415 100.631L100.656 100.664L53.3796 100.698C53.6407 93.5265 53.3831 86.2345 53.4523 79.0481C53.4821 75.9593 53.4446 72.8039 53.2798 69.7215Z"/><path fill="#FEFEFE" transform="matrix(1.81771 0 0 1.81771 -0.00012207 -6.10352e-05)" d="M64.3064 42.98C86.6378 42.8635 109.643 42.7416 131.958 42.986C130.737 45.0857 129.59 47.0851 128.454 49.2322C127.644 50.9723 127.364 50.8126 125.442 50.8162C103.643 50.8567 81.7643 50.5211 59.9687 50.7946C60.3219 50.0845 60.8904 49.1951 61.308 48.4972C62.0483 47.1562 63.7394 44.2641 64.3064 42.98Z"/><path fill="#EDEBEB" transform="matrix(1.81771 0 0 1.81771 -0.00012207 -6.10352e-05)" d="M61.308 48.4972C61.8808 49.0381 62.0665 49.0359 62.9892 49.0024C77.8562 48.4618 92.8865 48.8983 107.782 48.7542C111.373 48.7195 125.941 48.6425 128.454 49.2322C127.644 50.9723 127.364 50.8126 125.442 50.8162C103.643 50.8567 81.7643 50.5211 59.9687 50.7946C60.3219 50.0845 60.8904 49.1951 61.308 48.4972Z"/></svg>